<?xml version="1.0" standalone="no"?>
<!DOCTYPE svg PUBLIC "-//W3C//DTD SVG 20010904//EN"
 "http://www.w3.org/TR/2001/REC-SVG-20010904/DTD/svg10.dtd">
<svg version="1.0" xmlns="http://www.w3.org/2000/svg"
 width="964.000000pt" height="964.000000pt" viewBox="0 0 964.000000 964.000000"
 preserveAspectRatio="xMidYMid meet">
<metadata>
Created by potrace 1.14, written by Peter Selinger 2001-2017
</metadata>
<g transform="translate(0.000000,964.000000) scale(0.100000,-0.100000)"
fill="#000000" stroke="none">
<path d="M885 8334 c-34 -19 -65 -56 -80 -94 -6 -15 -10 -132 -9 -285 l1 -260
-341 0 c-325 0 -343 -1 -376 -21 -19 -11 -45 -38 -57 -60 l-23 -39 3 -3097 2
-3097 21 -27 c11 -15 33 -37 48 -48 27 -21 29 -21 1470 -21 l1442 0 36 25
c100 68 88 212 -22 271 -20 11 -269 13 -1355 14 l-1330 0 -1 2880 c0 1584 1
2887 3 2895 3 12 27 15 138 14 73 -1 141 -4 149 -7 9 -4 16 -3 16 1 0 9 54 7
69 -3 6 -3 11 -3 11 2 0 4 22 8 48 8 l49 0 -1 -428 c-1 -235 3 -427 7 -427 5
0 5 -5 1 -12 -10 -16 -11 -2868 -1 -2868 5 0 5 -5 1 -12 -10 -16 -11 -948 -1
-948 5 0 5 -5 1 -12 -4 -6 -8 -82 -9 -167 -1 -166 11 -237 45 -271 46 -46 62
-49 376 -55 322 -6 463 -11 589 -20 44 -4 107 -8 140 -10 106 -6 254 -19 355
-31 25 -2 68 -7 95 -9 28 -2 66 -6 85 -9 35 -5 88 -12 164 -21 22 -3 51 -7 65
-10 14 -2 46 -7 71 -10 25 -3 99 -15 165 -26 66 -12 134 -23 150 -26 64 -10
75 -12 83 -17 4 -2 29 -7 56 -10 26 -3 51 -8 56 -11 5 -3 21 -7 37 -9 134 -17
672 -169 854 -242 35 -14 71 -27 79 -29 8 -1 45 -17 83 -34 37 -17 70 -31 72
-31 7 0 219 -104 225 -110 21 -21 161 -89 174 -84 6 2 23 5 38 8 15 2 60 24
100 47 69 41 283 149 294 149 3 0 24 8 47 18 36 16 150 61 239 94 15 6 30 10
33 9 3 -1 19 6 35 14 16 8 31 15 32 14 2 -1 43 11 93 26 106 32 76 24 310 85
105 27 201 52 215 54 14 3 36 7 50 10 14 3 36 7 50 10 14 2 32 7 40 10 8 3 31
7 50 10 19 3 46 8 60 11 14 3 41 8 60 11 19 4 44 8 55 11 11 2 36 6 55 9 19 3
60 9 90 14 30 6 75 12 100 15 25 3 56 7 70 10 14 2 44 7 68 10 23 3 59 7 81
10 21 3 58 8 82 10 46 5 122 13 179 20 19 2 64 7 100 10 36 3 90 7 120 10 88
8 233 18 470 30 41 2 215 7 385 11 333 7 343 8 391 62 13 15 26 42 30 61 4 19
7 1168 7 2553 l0 2518 36 1 c93 2 120 1 130 -5 6 -4 11 -4 11 1 0 9 200 9 224
0 9 -4 16 -3 16 1 0 9 41 8 56 0 6 -4 9 -1030 9 -2895 l0 -2888 -1485 -1
c-1340 0 -1488 -2 -1515 -16 -109 -58 -121 -200 -23 -270 l33 -23 1590 -3
c1721 -2 1620 -5 1672 50 12 13 26 36 32 51 12 31 16 6138 5 6195 -7 35 -46
82 -84 103 -19 10 -100 13 -365 14 l-340 0 -1 261 c-2 235 -4 265 -21 305 -15
34 -31 50 -66 68 l-46 24 -303 -7 c-337 -7 -392 -9 -748 -31 -54 -3 -154 -12
-255 -21 -27 -3 -70 -7 -95 -9 -70 -6 -211 -23 -265 -30 -16 -3 -51 -7 -76 -9
-25 -3 -57 -7 -70 -10 -13 -4 -46 -8 -73 -11 -26 -2 -56 -7 -65 -9 -9 -3 -36
-8 -61 -10 -49 -6 -302 -51 -395 -71 -5 -2 -66 -15 -134 -30 -67 -15 -135 -29
-149 -31 -14 -3 -29 -7 -34 -10 -4 -3 -16 -7 -26 -9 -9 -1 -37 -8 -62 -15 -25
-7 -52 -14 -60 -15 -8 -2 -55 -16 -105 -30 -49 -15 -97 -28 -105 -30 -68 -15
-504 -180 -568 -215 -9 -5 -68 -34 -130 -65 l-113 -56 -157 78 c-87 43 -171
83 -187 90 -157 63 -390 148 -435 158 -11 2 -126 36 -140 41 -8 3 -16 5 -17 5
-2 0 -33 9 -70 20 -83 24 -231 61 -258 65 -11 1 -20 3 -20 4 0 2 -17 6 -60 15
-16 4 -34 8 -40 9 -5 2 -28 6 -50 11 -22 4 -49 9 -60 12 -11 2 -42 8 -70 13
-27 6 -61 12 -75 15 -24 5 -100 18 -165 30 -16 2 -39 7 -50 9 -26 4 -99 15
-150 21 -22 3 -51 7 -65 10 -14 3 -47 8 -75 10 -27 3 -63 8 -80 10 -29 4 -100
13 -160 20 -16 1 -64 6 -105 9 -41 4 -88 9 -105 11 -69 9 -217 20 -410 30 -60
3 -141 8 -180 10 -38 3 -216 7 -395 10 -292 5 -328 4 -355 -11z m580 -309
c116 -3 244 -8 285 -11 115 -7 195 -12 195 -13 0 -1 41 -4 90 -6 50 -3 106 -7
125 -10 19 -2 67 -7 105 -11 39 -3 81 -8 95 -9 14 -1 54 -6 90 -9 36 -4 76 -9
90 -11 37 -5 99 -14 147 -20 91 -12 108 -15 243 -37 36 -5 78 -12 94 -14 16
-2 45 -8 65 -13 20 -5 52 -12 71 -15 19 -3 67 -12 105 -20 39 -8 82 -17 95
-20 20 -3 215 -50 255 -60 6 -2 24 -6 40 -10 17 -5 62 -17 100 -28 39 -11 75
-21 80 -23 6 -1 17 -5 25 -8 8 -3 56 -18 105 -33 88 -26 301 -103 360 -129 78
-34 110 -48 115 -49 23 -5 220 -112 221 -120 1 -22 1 -5442 -1 -5466 -1 -14
-4 -19 -7 -12 -2 6 -9 12 -14 12 -6 0 -36 12 -67 26 -133 61 -243 105 -362
145 -47 16 -105 36 -130 45 -25 9 -52 17 -60 19 -8 2 -44 13 -80 24 -116 36
-473 126 -540 136 -14 3 -36 7 -50 10 -14 3 -47 10 -75 15 -27 6 -61 13 -75
16 -14 3 -38 7 -55 10 -16 2 -41 7 -55 11 -14 3 -38 7 -55 9 -16 1 -43 5 -60
8 -16 4 -46 9 -65 11 -19 3 -44 8 -55 10 -11 2 -47 7 -79 11 -33 3 -69 8 -80
10 -12 2 -41 6 -66 9 -25 3 -61 8 -81 11 -20 3 -56 7 -80 9 -71 6 -150 14
-200 20 -25 3 -75 7 -110 10 -35 2 -93 7 -129 11 -118 11 -332 21 -630 29
-129 4 -246 8 -260 9 l-25 1 -2 2760 c0 1518 1 2763 2 2766 2 3 35 4 72 3 37
-1 163 -5 278 -9z m7061 -2757 l1 -2767 -146 -1 c-260 -3 -725 -26 -906 -46
-22 -2 -67 -6 -100 -9 -33 -3 -73 -7 -90 -9 -16 -2 -61 -6 -100 -10 -38 -4
-81 -9 -95 -11 -14 -2 -49 -7 -78 -10 -29 -2 -63 -7 -75 -10 -12 -2 -44 -7
-72 -10 -57 -7 -109 -14 -145 -21 -14 -2 -41 -7 -60 -10 -87 -14 -266 -46
-270 -49 -3 -2 -26 -6 -50 -10 -25 -3 -54 -9 -65 -12 -11 -3 -29 -8 -40 -9
-11 -2 -38 -8 -60 -13 -22 -5 -51 -12 -65 -15 -21 -4 -225 -56 -285 -72 -11
-3 -27 -7 -35 -9 -8 -1 -22 -4 -30 -7 -8 -3 -112 -37 -230 -77 -118 -39 -219
-73 -225 -75 -17 -5 -44 -17 -184 -77 -74 -32 -137 -56 -140 -54 -2 3 -4 1237
-4 2742 l-1 2738 133 66 c147 74 372 167 441 184 8 1 33 10 55 18 56 21 334
105 370 112 11 2 20 4 20 5 0 1 7 3 15 5 8 1 62 14 120 28 58 14 119 28 135
31 17 4 41 9 55 12 33 7 110 23 135 28 11 2 58 11 105 20 84 15 117 21 175 30
96 15 122 19 135 21 8 2 40 6 71 9 31 4 65 8 75 10 11 2 48 7 84 11 36 4 76 9
90 11 14 1 50 5 80 8 30 4 73 8 95 10 22 3 72 7 110 10 39 4 97 9 130 11 178
15 327 23 565 31 107 3 196 7 197 7 1 1 37 2 80 1 l78 0 1 -2766z"/>
<path d="M1935 6901 c-120 -35 -157 -166 -73 -260 32 -35 74 -48 183 -55 44
-3 80 -5 80 -6 0 -1 25 -3 55 -5 57 -4 135 -12 205 -20 22 -2 63 -7 90 -10 28
-2 61 -7 75 -9 14 -2 48 -7 75 -10 28 -3 61 -8 75 -11 14 -2 48 -7 75 -11 28
-3 59 -7 70 -9 11 -2 43 -6 70 -10 28 -4 53 -9 56 -11 3 -1 28 -6 55 -10 27
-3 58 -8 69 -11 11 -2 29 -6 40 -7 11 -2 31 -6 45 -10 14 -3 42 -8 62 -10 21
-3 41 -7 46 -10 5 -3 24 -8 43 -10 47 -7 342 -81 469 -118 133 -39 161 -42
207 -27 30 9 106 69 89 69 -3 0 1 11 8 24 29 57 -10 160 -71 188 -65 30 -509
149 -638 172 -16 2 -41 7 -55 10 -14 3 -45 10 -70 15 -41 9 -100 20 -140 27
-8 2 -31 6 -50 9 -121 21 -220 36 -325 50 -22 3 -56 8 -75 11 -19 3 -55 7 -80
10 -25 2 -58 6 -75 9 -45 6 -135 17 -180 20 -119 10 -175 15 -225 21 -87 9
-163 11 -185 5z"/>
<path d="M1912 5915 c-101 -45 -127 -169 -54 -249 41 -43 67 -50 217 -61 130
-9 208 -15 240 -20 17 -2 57 -7 90 -10 33 -3 76 -8 95 -11 19 -3 51 -7 70 -9
19 -3 53 -7 75 -10 22 -2 63 -7 90 -11 28 -3 59 -8 70 -10 20 -4 33 -6 115
-20 174 -28 183 -29 355 -64 33 -7 85 -19 115 -26 30 -7 69 -16 85 -19 39 -7
116 -26 235 -59 52 -15 102 -29 110 -31 8 -2 31 -9 50 -15 62 -19 100 -22 136
-10 84 28 129 126 96 210 -18 47 -81 89 -154 106 -5 1 -9 2 -10 4 -2 1 -10 3
-18 5 -8 1 -55 14 -104 29 -49 14 -93 23 -97 20 -5 -3 -9 0 -9 5 0 6 -3 10 -7
9 -5 -1 -51 8 -103 21 -52 13 -102 24 -110 26 -34 8 -217 46 -240 50 -25 5
-50 10 -100 20 -14 2 -38 7 -55 9 -16 3 -70 12 -120 20 -93 15 -144 23 -205
32 -19 2 -51 7 -70 11 -19 3 -46 7 -60 8 -57 5 -157 16 -190 20 -58 7 -142 16
-195 21 -27 3 -70 7 -95 9 -152 14 -216 15 -248 0z"/>
<path d="M1905 4934 c-83 -45 -112 -133 -71 -213 28 -54 79 -82 157 -86 52 -3
183 -14 230 -20 17 -3 63 -7 102 -10 40 -3 86 -8 102 -10 17 -3 55 -7 85 -10
30 -2 66 -7 80 -9 14 -3 48 -8 75 -11 70 -8 252 -36 325 -50 14 -2 63 -11 110
-19 47 -8 119 -22 160 -31 41 -9 88 -19 105 -22 23 -4 347 -84 390 -96 6 -2
37 -11 70 -21 33 -10 68 -20 78 -22 9 -2 26 -6 37 -8 34 -8 109 20 133 50 52
65 50 156 -5 213 -26 27 -106 60 -180 75 -7 2 -20 5 -28 8 -8 3 -33 11 -55 16
-22 6 -67 18 -100 27 -33 9 -70 18 -83 21 -12 2 -62 14 -110 25 -48 12 -96 23
-107 25 -47 11 -123 25 -155 30 -19 3 -37 7 -40 9 -3 2 -24 6 -46 9 -22 4 -51
9 -64 11 -14 3 -41 8 -60 11 -47 7 -81 13 -105 18 -11 2 -42 7 -70 10 -27 4
-61 9 -75 11 -14 3 -41 7 -60 9 -33 4 -94 12 -165 21 -16 2 -55 7 -85 10 -30
3 -73 8 -95 10 -22 2 -69 7 -105 10 -36 3 -78 7 -95 10 -16 2 -79 6 -140 9
-90 5 -115 3 -140 -10z"/>
<path d="M1979 3976 c-2 -2 -21 -7 -42 -10 -105 -17 -156 -155 -90 -244 32
-43 82 -62 175 -68 46 -2 103 -7 128 -9 25 -3 70 -7 100 -10 87 -8 131 -13
195 -20 33 -4 71 -9 85 -10 14 -1 45 -6 70 -9 25 -4 79 -11 120 -17 97 -13
130 -18 155 -23 11 -2 43 -7 70 -10 169 -24 634 -128 875 -197 19 -5 43 -12
53 -14 10 -2 28 -7 40 -11 51 -16 110 -3 150 34 50 45 64 135 30 193 -18 30
-82 79 -105 79 -7 0 -51 12 -98 26 -47 14 -96 27 -110 30 -14 2 -32 7 -40 11
-8 3 -20 7 -26 8 -6 2 -58 14 -115 28 -57 14 -115 28 -129 31 -14 3 -36 7 -50
10 -14 3 -36 8 -50 11 -14 3 -35 7 -48 10 -13 2 -31 6 -40 9 -9 3 -37 8 -61
11 -23 3 -47 7 -51 10 -4 3 -23 7 -41 9 -19 3 -63 10 -99 16 -36 6 -78 13 -95
16 -16 2 -41 6 -55 8 -28 5 -161 23 -230 32 -25 3 -56 7 -70 10 -14 2 -54 6
-90 10 -70 7 -115 12 -115 14 0 0 -29 3 -65 5 -36 2 -85 7 -110 10 -25 3 -81
8 -125 11 -43 3 -82 7 -86 9 -3 3 -8 3 -10 1z"/>
<path d="M7576 6902 c-2 -2 -33 -5 -68 -8 -34 -2 -85 -7 -113 -9 -27 -3 -79
-8 -115 -11 -36 -3 -76 -8 -90 -11 -14 -2 -32 -5 -40 -5 -8 0 -64 -7 -125 -14
-60 -8 -128 -16 -150 -19 -22 -3 -51 -7 -65 -10 -14 -2 -42 -7 -62 -10 -55 -7
-107 -16 -132 -21 -11 -2 -37 -7 -56 -10 -46 -6 -112 -19 -235 -45 -55 -11
-111 -22 -125 -25 -29 -6 -151 -34 -207 -48 -245 -62 -376 -103 -407 -127 -79
-62 -78 -188 2 -246 57 -42 90 -40 307 20 183 50 252 68 272 69 5 0 19 4 32 9
13 5 40 12 60 15 20 3 63 12 96 19 33 8 80 17 104 20 23 3 46 7 51 10 4 2 27
7 51 10 24 3 51 7 59 10 8 2 31 7 50 10 19 3 46 7 60 10 14 2 43 7 65 10 23 3
50 7 60 9 11 2 45 7 76 10 31 4 67 9 80 11 27 5 75 11 164 20 33 3 71 8 85 11
14 2 57 7 95 10 39 3 86 7 105 9 19 2 78 7 130 10 52 4 109 11 125 16 38 11
84 53 100 92 30 72 -10 169 -82 198 -26 11 -149 19 -157 11z"/>
<path d="M7557 5924 c-2 -3 -33 -6 -182 -19 -53 -4 -122 -12 -195 -21 -74 -9
-123 -15 -170 -19 -25 -2 -54 -6 -66 -9 -12 -2 -45 -7 -75 -11 -53 -6 -220
-32 -269 -41 -49 -9 -236 -44 -265 -49 -32 -7 -197 -43 -230 -51 -11 -3 -31
-7 -45 -10 -85 -17 -273 -69 -400 -110 -64 -21 -79 -30 -103 -64 -63 -89 -21
-209 84 -241 39 -12 56 -9 214 36 105 30 319 85 355 92 14 2 45 9 70 14 72 17
83 19 120 25 19 3 51 9 70 14 19 5 51 11 70 14 53 9 93 16 116 21 11 2 40 7
65 10 24 3 55 8 69 10 34 8 88 16 130 20 19 2 49 6 65 8 17 3 55 8 86 12 31 3
66 7 77 10 12 2 52 6 89 10 37 3 88 8 112 11 25 4 63 7 85 9 74 5 210 17 241
20 118 12 185 127 132 227 -33 61 -77 83 -170 84 -42 0 -78 -1 -80 -2z"/>
<path d="M7567 4944 c-1 -1 -40 -5 -87 -8 -124 -11 -191 -17 -320 -32 -19 -2
-57 -6 -85 -9 -27 -2 -63 -7 -80 -9 -34 -6 -120 -18 -150 -21 -11 -1 -20 -4
-20 -5 0 -1 -16 -4 -35 -5 -35 -3 -64 -8 -130 -20 -19 -3 -48 -8 -65 -9 -16
-2 -55 -8 -85 -15 -85 -17 -292 -59 -320 -64 -14 -3 -45 -10 -70 -17 -25 -7
-52 -13 -60 -15 -8 -2 -33 -8 -55 -13 -22 -6 -51 -13 -65 -16 -48 -9 -313 -87
-334 -98 -30 -16 -41 -29 -63 -74 -49 -99 18 -211 131 -219 16 -1 74 12 130
28 136 39 442 117 486 123 46 7 75 12 75 14 0 1 7 3 15 5 24 5 133 26 160 31
14 2 45 8 70 13 25 5 52 9 60 9 8 0 29 3 45 7 72 15 274 43 430 61 28 3 61 8
75 10 14 2 55 6 92 9 37 2 79 7 95 9 15 3 66 7 113 11 162 12 193 16 219 30
117 60 111 230 -9 281 -27 12 -151 17 -163 8z"/>
<path d="M7528 3964 c-3 -2 -41 -6 -208 -19 -25 -2 -67 -7 -95 -10 -27 -3 -68
-8 -90 -11 -22 -3 -56 -7 -75 -9 -19 -3 -55 -7 -80 -10 -54 -6 -127 -16 -155
-21 -28 -5 -73 -13 -115 -19 -19 -2 -46 -7 -60 -9 -14 -3 -43 -7 -65 -11 -22
-3 -47 -7 -55 -10 -8 -2 -31 -6 -50 -9 -19 -3 -80 -15 -135 -26 -55 -12 -109
-23 -120 -25 -22 -4 -21 -4 -150 -35 -49 -12 -101 -24 -115 -26 -67 -13 -336
-95 -359 -110 -110 -72 -89 -235 37 -277 45 -16 61 -15 132 8 61 19 55 17 270
73 142 37 209 53 378 86 55 12 301 56 335 61 20 3 54 7 75 10 20 3 48 8 62 11
14 2 45 7 70 9 25 3 56 7 70 10 14 3 54 8 90 11 36 3 76 7 90 9 14 3 54 8 90
11 93 9 115 12 115 13 0 1 32 3 70 6 229 12 271 24 312 86 46 70 30 158 -39
211 -32 24 -41 26 -131 26 -53 -1 -98 -2 -99 -4z"/>
</g>
</svg>
